<svg width="24" height="24" viewBox="0 0 24 24" fill="none" xmlns="http://www.w3.org/2000/svg">
<path d="M24 0H0V24H24V0Z" fill="url(#paint0_linear)"/>
<path d="M10.6125 11.5125C10.6125 11.5125 11.9625 11.4 11.9625 9.825C11.9625 8.25 10.875 7.5 9.4875 7.5H4.875V16.35H9.4875C9.4875 16.35 12.3 16.425 12.3 13.725C12.2625 13.725 12.4125 11.5125 10.6125 11.5125ZM6.9 9.075H9.4875C9.4875 9.075 10.125 9.075 10.125 10.0125C10.125 10.95 9.75 11.0625 9.3375 11.0625H6.9375V9.075H6.9ZM9.3375 14.7375H6.9V12.375H9.4875C9.4875 12.375 10.425 12.375 10.425 13.575C10.3875 14.625 9.7125 14.7375 9.3375 14.7375Z" fill="#F1F2F2"/>
<path d="M17.775 8.02502H14.1375V9.11252H17.775V8.02502Z" fill="#F1F2F2"/>
<path d="M16.0125 9.75C12.6 9.75 12.6 13.1625 12.6 13.1625C12.6 13.1625 12.375 16.5375 16.0125 16.5375C16.0125 16.5375 19.05 16.725 19.05 14.175H17.475C17.475 14.175 17.5125 15.1125 16.05 15.1125C16.05 15.1125 14.475 15.225 14.475 13.575H19.05C19.0875 13.575 19.6125 9.75 16.0125 9.75ZM14.5125 12.375C14.5125 12.375 14.7 11.025 16.05 11.025C17.4 11.025 17.4 12.375 17.4 12.375H14.5125Z" fill="#F1F2F2"/>
<defs>
<linearGradient id="paint0_linear" x1="12" y1="0" x2="12" y2="24" gradientUnits="userSpaceOnUse">
<stop stop-color="#88D7F0"/>
<stop offset="1" stop-color="#23A1EB"/>
</linearGradient>
</defs>
</svg>
