<svg width="37" height="36" viewBox="0 0 37 36" class="fill-current" fill="none" xmlns="http://www.w3.org/2000/svg">
<g clip-path="url(#clip0)">
<path d="M36.7823 0H0.782288V36H36.7823V0Z" fill="black"/>
<path d="M16.701 17.2688C16.701 17.2688 18.726 17.1 18.726 14.7375C18.726 12.375 17.0948 11.25 15.0135 11.25H8.09479V24.525H15.0135C15.0135 24.525 19.2323 24.6375 19.2323 20.5875C19.176 20.5875 19.401 17.2688 16.701 17.2688ZM11.1323 13.6125H15.0135C15.0135 13.6125 15.9698 13.6125 15.9698 15.0188C15.9698 16.425 15.4073 16.5938 14.7885 16.5938H11.1885V13.6125H11.1323ZM14.7885 22.1062H11.1323V18.5625H15.0135C15.0135 18.5625 16.4198 18.5625 16.4198 20.3625C16.3635 21.9375 15.351 22.1062 14.7885 22.1062Z" fill="#F1F2F2"/>
<path d="M27.4448 12.0375H21.9885V13.6688H27.4448V12.0375Z" fill="#F1F2F2"/>
<path d="M24.8011 14.625C19.6823 14.625 19.6823 19.7437 19.6823 19.7437C19.6823 19.7437 19.3448 24.8062 24.8011 24.8062C24.8011 24.8062 29.3573 25.0875 29.3573 21.2625H26.9948C26.9948 21.2625 27.0511 22.6687 24.8573 22.6687C24.8573 22.6687 22.4948 22.8375 22.4948 20.3625H29.3573C29.4136 20.3625 30.2011 14.625 24.8011 14.625ZM22.5511 18.5625C22.5511 18.5625 22.8323 16.5375 24.8573 16.5375C26.8823 16.5375 26.8823 18.5625 26.8823 18.5625H22.5511Z" fill="#F1F2F2"/>
</g>
<defs>
<clipPath id="clip0">
<rect width="36" height="36" fill="white" transform="translate(0.782288)"/>
</clipPath>
</defs>
</svg>
