<svg width="36" height="36" viewBox="0 0 36 36" fill="none" xmlns="http://www.w3.org/2000/svg">
<path d="M11.658 3.65858L13.272 3.14258C14.787 2.65958 16.4025 3.44108 17.052 4.96808L18.3405 8.01008C18.9015 9.33458 18.591 10.8931 17.5695 11.8621L14.7285 14.5591C14.9025 16.1731 15.4455 17.7616 16.3545 19.3246C17.2181 20.8369 18.3765 22.1605 19.761 23.2171L23.1735 22.0771C24.468 21.6466 25.8765 22.1431 26.6685 23.3086L28.518 26.0236C29.4405 27.3796 29.2755 29.2486 28.131 30.3976L26.904 31.6291C25.683 32.8546 23.9385 33.3001 22.326 32.7961C18.5175 31.6081 15.0165 28.0816 11.8215 22.2166C8.62195 16.3426 7.49245 11.3566 8.43445 7.26458C8.83045 5.54258 10.056 4.17008 11.658 3.65858Z" fill="black"/>
</svg>
