<svg width="36" height="36" viewBox="0 0 36 36" fill="none" xmlns="http://www.w3.org/2000/svg">
<rect width="36" height="36" rx="4" fill="#212121"/>
<path d="M15.0599 16.8772C15.0599 16.8772 17.7858 16.65 17.7858 13.4697C17.7858 10.2894 15.5899 8.77502 12.7882 8.77502H3.47452V26.6452H12.7882C12.7882 26.6452 18.4673 26.7967 18.4673 21.3447C18.3916 21.3447 18.6945 16.8772 15.0599 16.8772ZM7.56346 11.9553H12.7882C12.7882 11.9553 14.0755 11.9553 14.0755 13.8483C14.0755 15.7414 13.3183 15.9685 12.4853 15.9685H7.63918V11.9553H7.56346ZM12.4853 23.3892H7.56346V18.6188H12.7882C12.7882 18.6188 14.6812 18.6188 14.6812 21.0419C14.6055 23.162 13.2425 23.3892 12.4853 23.3892Z" fill="#F1F2F2"/>
<path d="M29.5226 9.83508H22.1776V12.031H29.5226V9.83508Z" fill="#F1F2F2"/>
<path d="M25.9637 13.3183C19.0731 13.3183 19.0731 20.2089 19.0731 20.2089C19.0731 20.2089 18.6188 27.0238 25.9637 27.0238C25.9637 27.0238 32.0971 27.4024 32.0971 22.2534H28.9168C28.9168 22.2534 28.9926 24.1464 26.0394 24.1464C26.0394 24.1464 22.8591 24.3736 22.8591 21.0419H32.0971C32.1728 21.0419 33.2329 13.3183 25.9637 13.3183ZM22.9349 18.6188C22.9349 18.6188 23.3135 15.8928 26.0394 15.8928C28.7654 15.8928 28.7654 18.6188 28.7654 18.6188H22.9349Z" fill="#F1F2F2"/>
</svg>
