<svg width="38" height="36" viewBox="0 0 38 36" fill="none" xmlns="http://www.w3.org/2000/svg">
<g clip-path="url(#clip0)">
<path class="hover:bg-red-700" d="M19.2144 0C9.03598 0 0.782288 8.25216 0.782288 18.4321C0.782288 26.576 6.06366 33.4851 13.3873 35.9224C14.3085 36.093 14.6467 35.5225 14.6467 35.0357C14.6467 34.5961 14.6296 33.1442 14.6217 31.604C9.49382 32.719 8.41178 29.4292 8.41178 29.4292C7.57332 27.2987 6.36523 26.7322 6.36523 26.7322C4.69288 25.5882 6.49129 25.6117 6.49129 25.6117C8.34219 25.7418 9.31679 27.5112 9.31679 27.5112C10.9607 30.3291 13.6288 29.5144 14.6806 29.0434C14.846 27.8521 15.3237 27.039 15.8508 26.5787C11.7568 26.1126 7.45306 24.5321 7.45306 17.4695C7.45306 15.4571 8.1731 13.8128 9.35219 12.522C9.16082 12.0578 8.52991 10.183 9.53075 7.64415C9.53075 7.64415 11.0786 7.14876 14.6009 9.53351C16.0712 9.12512 17.648 8.92031 19.2144 8.91329C20.7809 8.92031 22.3589 9.12512 23.8319 9.53351C27.35 7.14876 28.8957 7.64415 28.8957 7.64415C29.899 10.183 29.2678 12.0578 29.0764 12.522C30.2582 13.8128 30.9734 15.4571 30.9734 17.4695C30.9734 24.5489 26.6614 26.1077 22.557 26.5641C23.2181 27.1361 23.8072 28.2578 23.8072 29.9774C23.8072 32.4437 23.7858 34.4286 23.7858 35.0357C23.7858 35.5262 24.1176 36.1009 25.0519 35.9199C32.3716 33.4799 37.6463 26.5732 37.6463 18.4321C37.6463 8.25216 29.3938 0 19.2144 0ZM7.68573 26.257C7.64513 26.3486 7.50106 26.376 7.36982 26.3132C7.23613 26.253 7.16104 26.1282 7.20438 26.0363C7.24406 25.942 7.38844 25.9157 7.52182 25.9789C7.65582 26.0391 7.73212 26.1651 7.68573 26.257ZM8.59238 27.066C8.50448 27.1475 8.33264 27.1096 8.21604 26.9808C8.09547 26.8523 8.07289 26.6805 8.16201 26.5978C8.25267 26.5163 8.41932 26.5544 8.54019 26.6829C8.66076 26.813 8.68426 26.9836 8.59238 27.066ZM9.21439 28.1011C9.10145 28.1795 8.91679 28.106 8.80263 27.942C8.6897 27.7781 8.6897 27.5816 8.80507 27.5028C8.91953 27.4241 9.10145 27.4949 9.21713 27.6576C9.32976 27.8242 9.32976 28.0208 9.21439 28.1011ZM10.2663 29.2998C10.1653 29.4113 9.95011 29.3813 9.79261 29.2293C9.63145 29.0807 9.58658 28.8698 9.68791 28.7584C9.79017 28.6467 10.0066 28.6781 10.1653 28.8289C10.3252 28.9772 10.3741 29.1897 10.2663 29.2998ZM11.6258 29.7045C11.5813 29.8489 11.374 29.9145 11.1653 29.8532C10.9568 29.79 10.8204 29.6209 10.8625 29.475C10.9058 29.3297 11.114 29.2613 11.3243 29.327C11.5324 29.3899 11.6692 29.5577 11.6258 29.7045ZM13.173 29.8762C13.1782 30.0282 13.0012 30.1543 12.782 30.157C12.5617 30.1619 12.3834 30.0389 12.381 29.8893C12.381 29.7358 12.554 29.611 12.7744 29.6073C12.9936 29.603 13.173 29.7251 13.173 29.8762ZM14.693 29.8179C14.7192 29.9663 14.5669 30.1186 14.3493 30.1592C14.1353 30.1983 13.9373 30.1067 13.9101 29.9596C13.8835 29.8076 14.0386 29.6553 14.2522 29.6159C14.4702 29.578 14.6652 29.6672 14.693 29.8179Z" fill="#161614"/>
</g>
<defs>
<clipPath id="clip0">
<rect width="36.864" height="36" fill="white" transform="translate(0.782288)"/>
</clipPath>
</defs>
</svg>
