<svg width="43" height="36" viewBox="0 0 43 36" fill="none" xmlns="http://www.w3.org/2000/svg">
<g clip-path="url(#clip0)">
<path d="M40.7003 33.6761C40.7913 33.677 40.8816 33.6592 40.9655 33.624C41.0493 33.5887 41.125 33.5367 41.1878 33.4711C41.2507 33.4056 41.2993 33.3278 41.3307 33.2428C41.362 33.1577 41.3755 33.0672 41.3703 32.9767C41.3703 32.4807 41.0696 32.2438 40.4528 32.2438H39.4561V34.8405H39.831V33.7086H40.2916L40.3022 33.7223L41.017 34.8405H41.4179L40.6488 33.6832L40.7003 33.6761ZM40.2667 33.4159H39.8321V32.5381H40.383C40.6676 32.5381 40.9921 32.5844 40.9921 32.9552C40.9921 33.3818 40.6637 33.4159 40.2645 33.4159" fill="black"/>
<path d="M30.9208 30.4217H25.6051V22.1367C25.6051 20.1611 25.5697 17.6178 22.8403 17.6178C20.0717 17.6178 19.6481 19.7704 19.6481 21.9929V30.4211H14.3323V13.3839H19.4355V15.7122H19.5069C20.0176 14.8432 20.7556 14.1283 21.6423 13.6436C22.5289 13.159 23.5311 12.9227 24.5419 12.9601C29.9297 12.9601 30.9231 16.487 30.9231 21.0753L30.9208 30.4217ZM8.33442 11.055C7.7243 11.0551 7.12784 10.8752 6.62049 10.5379C6.11313 10.2007 5.71769 9.72124 5.48411 9.1603C5.25053 8.59936 5.18931 7.98208 5.30823 7.38652C5.42715 6.79096 5.72086 6.24387 6.1522 5.81444C6.58354 5.385 7.13315 5.09251 7.73152 4.97394C8.32989 4.85537 8.95014 4.91606 9.51385 5.14833C10.0776 5.38059 10.5594 5.77401 10.8985 6.27882C11.2375 6.78363 11.4186 7.37717 11.4187 7.98437C11.4187 8.38754 11.339 8.78677 11.184 9.15928C11.0291 9.53179 10.802 9.87027 10.5156 10.1554C10.2292 10.4405 9.8891 10.6667 9.51487 10.8211C9.14063 10.9754 8.73952 11.0549 8.33442 11.055ZM10.9923 30.4217H5.671V13.3839H10.9923V30.4217ZM33.571 0.00194429H2.99985C2.30597 -0.00584876 1.63734 0.26084 1.14094 0.743407C0.64453 1.22597 0.360962 1.88494 0.352493 2.5755V33.1269C0.360672 33.8178 0.644074 34.4773 1.14046 34.9603C1.63685 35.4434 2.30563 35.7106 2.99985 35.7033H33.571C34.2666 35.7119 34.9372 35.4455 35.4355 34.9624C35.9339 34.4794 36.2192 33.8192 36.2288 33.1269V2.57329C36.2189 1.88136 35.9334 1.22165 35.435 0.739095C34.9367 0.25654 34.2662 -0.00938664 33.571 -0.000260934" fill="black"/>
<path d="M40.3121 31.0871C39.6654 31.0933 39.0474 31.3541 38.5934 31.8125C38.1394 32.271 37.8862 32.8897 37.8893 33.5334C37.8924 34.1771 38.1516 34.7933 38.61 35.2474C39.0684 35.7014 39.6889 35.9563 40.3357 35.9563C40.9824 35.9563 41.6029 35.7014 42.0613 35.2474C42.5198 34.7933 42.7789 34.1771 42.782 33.5334C42.7851 32.8897 42.532 32.271 42.0779 31.8125C41.6239 31.3541 41.0059 31.0933 40.3592 31.0871H40.3121ZM40.3121 35.6776C39.8879 35.6846 39.4712 35.5663 39.1145 35.3376C38.7579 35.1089 38.4774 34.7801 38.3085 34.3927C38.1397 34.0054 38.09 33.5769 38.1659 33.1614C38.2417 32.746 38.4396 32.3623 38.7346 32.0588C39.0295 31.7553 39.4083 31.5456 39.823 31.4564C40.2376 31.3671 40.6696 31.4022 41.0643 31.5573C41.4589 31.7124 41.7984 31.9804 42.04 32.3275C42.2815 32.6747 42.4142 33.0853 42.4213 33.5074C42.4213 33.5196 42.4213 33.5311 42.4213 33.5433C42.4331 34.0971 42.2235 34.633 41.8385 35.033C41.4534 35.433 40.9245 35.6645 40.368 35.6765H40.3127" fill="black"/>
</g>
<defs>
<clipPath id="clip0">
<rect width="42.4286" height="36" fill="white" transform="translate(0.353714)"/>
</clipPath>
</defs>
</svg>
