<svg width="29" height="24" viewBox="0 0 29 24" fill="none" xmlns="http://www.w3.org/2000/svg">
<g clip-path="url(#clip0)">
<path d="M26.8977 22.4507C26.9584 22.4513 27.0186 22.4395 27.0745 22.416C27.1304 22.3925 27.1808 22.3578 27.2227 22.3141C27.2646 22.2704 27.297 22.2186 27.3179 22.1619C27.3389 22.1052 27.3478 22.0448 27.3444 21.9845C27.3444 21.6538 27.1439 21.4958 26.7327 21.4958H26.0682V23.227H26.3182V22.4724H26.6252L26.6323 22.4816L27.1089 23.227H27.3761L26.8634 22.4555L26.8977 22.4507ZM26.6087 22.2773H26.3189V21.692H26.6862C26.8759 21.692 27.0922 21.7229 27.0922 21.9702C27.0922 22.2545 26.8733 22.2773 26.6072 22.2773" fill="url(#paint0_linear)"/>
<path d="M20.3777 20.281H16.8338V14.7576C16.8338 13.4406 16.8102 11.7451 14.9907 11.7451C13.1449 11.7451 12.8625 13.1801 12.8625 14.6618V20.2806H9.31868V8.92242H12.7208V10.4746H12.7684C13.1089 9.89528 13.6008 9.41867 14.192 9.09558C14.7831 8.77249 15.4512 8.615 16.1251 8.6399C19.7169 8.6399 20.3792 10.9912 20.3792 14.0501L20.3777 20.281ZM5.32006 7.36984C4.91332 7.36991 4.51568 7.24994 4.17744 7.02511C3.83921 6.80027 3.57558 6.48066 3.41986 6.1067C3.26413 5.73274 3.22332 5.32122 3.3026 4.92418C3.38188 4.52714 3.57769 4.16242 3.86525 3.87613C4.15281 3.58984 4.51922 3.39484 4.91813 3.3158C5.31704 3.23675 5.73054 3.27721 6.10635 3.43206C6.48216 3.5869 6.80339 3.84917 7.02943 4.18572C7.25546 4.52226 7.37615 4.91795 7.37623 5.32275C7.37628 5.59153 7.32312 5.85769 7.21982 6.10602C7.11651 6.35436 6.96508 6.58002 6.77415 6.77011C6.58322 6.9602 6.35652 7.111 6.10703 7.2139C5.85754 7.3168 5.59013 7.36979 5.32006 7.36984V7.36984ZM7.09198 20.281H3.54445V8.92242H7.09198V20.281ZM22.1444 0.00113343H1.76369C1.3011 -0.00406194 0.855344 0.173731 0.524407 0.495442C0.19347 0.817153 0.0044249 1.25646 -0.0012207 1.71684V22.0845C0.00423167 22.5451 0.193166 22.9847 0.524092 23.3067C0.855018 23.6288 1.30087 23.8069 1.76369 23.802H22.1444C22.6082 23.8078 23.0552 23.6302 23.3875 23.3081C23.7197 22.9861 23.9099 22.546 23.9163 22.0845V1.71537C23.9097 1.25408 23.7194 0.814271 23.3871 0.492568C23.0549 0.170864 22.6079 -0.00642052 22.1444 -0.000336716" fill="url(#paint1_linear)"/>
<path d="M26.6389 20.7247C26.2077 20.7289 25.7958 20.9027 25.4931 21.2084C25.1904 21.514 25.0216 21.9265 25.0237 22.3556C25.0258 22.7847 25.1985 23.1955 25.5042 23.4982C25.8098 23.801 26.2234 23.9709 26.6546 23.9709C27.0858 23.9709 27.4994 23.801 27.805 23.4982C28.1107 23.1955 28.2834 22.7847 28.2855 22.3556C28.2876 21.9265 28.1188 21.514 27.8161 21.2084C27.5134 20.9027 27.1014 20.7289 26.6703 20.7247H26.6389ZM26.6389 23.7851C26.3561 23.7898 26.0783 23.7109 25.8405 23.5584C25.6027 23.4059 25.4158 23.1867 25.3032 22.9285C25.1906 22.6702 25.1575 22.3846 25.208 22.1076C25.2586 21.8307 25.3906 21.5748 25.5872 21.3725C25.7838 21.1702 26.0363 21.0304 26.3128 20.9709C26.5892 20.9114 26.8772 20.9348 27.1403 21.0382C27.4034 21.1416 27.6298 21.3203 27.7908 21.5517C27.9518 21.7831 28.0403 22.0568 28.045 22.3383C28.045 22.3464 28.045 22.3541 28.045 22.3622C28.0529 22.7314 27.9131 23.0886 27.6565 23.3553C27.3998 23.622 27.0472 23.7763 26.6762 23.7843H26.6393" fill="url(#paint2_linear)"/>
</g>
<defs>
<linearGradient id="paint0_linear" x1="26.7222" y1="21.4958" x2="26.7222" y2="23.227" gradientUnits="userSpaceOnUse">
<stop stop-color="#88D7F0"/>
<stop offset="1" stop-color="#23A1EB"/>
</linearGradient>
<linearGradient id="paint1_linear" x1="11.9576" y1="-0.000488281" x2="11.9576" y2="23.8021" gradientUnits="userSpaceOnUse">
<stop stop-color="#88D7F0"/>
<stop offset="1" stop-color="#23A1EB"/>
</linearGradient>
<linearGradient id="paint2_linear" x1="26.6546" y1="20.7247" x2="26.6546" y2="23.9709" gradientUnits="userSpaceOnUse">
<stop stop-color="#88D7F0"/>
<stop offset="1" stop-color="#23A1EB"/>
</linearGradient>
<clipPath id="clip0">
<rect width="28.2857" height="24" fill="white"/>
</clipPath>
</defs>
</svg>
