<svg width="36" height="36" viewBox="0 0 36 36" fill="none" xmlns="http://www.w3.org/2000/svg">
<path d="M30 30H6C5.20435 30 4.44129 29.6839 3.87868 29.1213C3.31607 28.5587 3 27.7957 3 27V8.8695C3.03365 8.09669 3.36451 7.36674 3.92352 6.83205C4.48252 6.29736 5.22645 5.99927 6 6H30C30.7956 6 31.5587 6.31607 32.1213 6.87868C32.6839 7.44129 33 8.20435 33 9V27C33 27.7957 32.6839 28.5587 32.1213 29.1213C31.5587 29.6839 30.7956 30 30 30ZM6 11.802V27H30V11.802L18 19.8L6 11.802ZM7.2 9L18 16.2L28.8 9H7.2Z" fill="black"/>
</svg>
